<svg xmlns="http://www.w3.org/2000/svg" viewBox="0 0 64 64"><title>22-SEARCHING</title><g id="_22-SEARCHING" data-name="22-SEARCHING"><path d="M42.016,17.325h-4.33a1,1,0,0,0-.985.83l-.55,3.193H13.66a1,1,0,0,0-.912,1.409l6.007,13.408a1,1,0,0,0,.912.591H34.683a1,1,0,0,0,.985-.83l2.861-16.6h3.487a1,1,0,0,0,0-2ZM33.84,34.756H20.315L15.2,23.348h20.6Z" style="fill:#231f20"/><path d="M32,38a3,3,0,1,0,3,3A3,3,0,0,0,32,38Zm0,4a1,1,0,1,1,1-1A1,1,0,0,1,32,42Z" style="fill:#231f20"/><path d="M23,38a3,3,0,1,0,3,3A3,3,0,0,0,23,38Zm0,4a1,1,0,1,1,1-1A1,1,0,0,1,23,42Z" style="fill:#231f20"/><path d="M60.707,59.293,46.491,45.078a24.169,24.169,0,0,0,6.643-16.619c0-13.532-11.245-24.542-25.067-24.542S3,14.927,3,28.459,14.245,53,28.067,53a25.266,25.266,0,0,0,17-6.523l14.23,14.23a1,1,0,0,0,1.414-1.414ZM5,28.459C5,16.029,15.348,5.917,28.067,5.917S51.134,16.029,51.134,28.459,40.786,51,28.067,51,5,40.888,5,28.459Z" style="fill:#231f20"/></g></svg>