<svg xmlns="http://www.w3.org/2000/svg" viewBox="0 0 64 64"><title>13-SHOPPING LIST</title><g id="_13-SHOPPING_LIST" data-name="13-SHOPPING LIST"><path d="M52,7H40V4a1,1,0,0,0-1-1H25a1,1,0,0,0-1,1V7H12a1,1,0,0,0-1,1V60a1,1,0,0,0,1,1H52a1,1,0,0,0,1-1V8A1,1,0,0,0,52,7ZM26,5H38v6H26V5ZM51,59H13V9H24v3a1,1,0,0,0,1,1H39a1,1,0,0,0,1-1V9H51Z" style="fill:#231f20"/><path d="M45.27,42.317l-4.851,5.191-2.785-2.281a1,1,0,1,0-1.268,1.546l3.51,2.875a1,1,0,0,0,1.364-.09l5.49-5.875a1,1,0,0,0-1.46-1.366Z" style="fill:#231f20"/><path d="M32,45H18a1,1,0,0,0,0,2H32a1,1,0,0,0,0-2Z" style="fill:#231f20"/><path d="M37.634,39.227a1,1,0,1,0-1.268,1.546l3.51,2.875a1,1,0,0,0,1.364-.09l5.49-5.875a1,1,0,0,0-1.46-1.366l-4.851,5.191Z" style="fill:#231f20"/><path d="M32,39H18a1,1,0,0,0,0,2H32a1,1,0,0,0,0-2Z" style="fill:#231f20"/><path d="M45.27,48.317l-4.851,5.191-2.785-2.281a1,1,0,1,0-1.268,1.546l3.51,2.875a1,1,0,0,0,1.364-.09l5.49-5.875a1,1,0,0,0-1.46-1.366Z" style="fill:#231f20"/><path d="M32,51H18a1,1,0,0,0,0,2H32a1,1,0,0,0,0-2Z" style="fill:#231f20"/><path d="M25.23,15.837A1,1,0,0,0,24.244,15H21a1,1,0,0,0,0,2h2.4l2.2,12.179a1,1,0,0,0,.984.821h11.67a1,1,0,0,0,.921-.609l4.669-11A1,1,0,0,0,42.917,17H25.423ZM41.406,19l-3.82,9H27.412l-1.641-9Z" style="fill:#231f20"/><path d="M29.71,31.71A1.014,1.014,0,1,0,29,32,1.052,1.052,0,0,0,29.71,31.71Z" style="fill:#231f20"/><path d="M35.71,30.29a1.046,1.046,0,0,0-.91-.27.636.636,0,0,0-.18.06.782.782,0,0,0-.181.09,1.7,1.7,0,0,0-.149.12,1.032,1.032,0,0,0-.21.33.942.942,0,0,0,0,.76.933.933,0,0,0,.21.33,1.7,1.7,0,0,0,.149.12.782.782,0,0,0,.181.09.636.636,0,0,0,.18.06A1.487,1.487,0,0,0,35,32a.99.99,0,0,0,1-1,1,1,0,0,0-.08-.38A1.155,1.155,0,0,0,35.71,30.29Z" style="fill:#231f20"/></g></svg>